<?xml version="1.0" encoding="UTF-8"?>
<!-- Created with Inkscape (http://www.inkscape.org/) -->
<svg width="300mm" height="180mm" version="1.1" viewBox="0 0 300 180" xmlns="http://www.w3.org/2000/svg">
 <circle r="1e5" fill="white"/>
 <g font-family="sans-serif" letter-spacing="0px" stroke-width=".26458" word-spacing="0px">
  <g transform="translate(-25)">
   <text x="136.24132" y="21.327585" fill="#000000" font-size="10.583px" style="line-height:1.25" xml:space="preserve"><tspan x="136.24132" y="21.327585" stroke-width=".26458">Machine client</tspan></text>
  </g>
  <text x="170.74275" y="46.322403" fill="#0000c8" font-size="6.8792px" text-anchor="middle" style="line-height:1.25" xml:space="preserve"><tspan x="170.74275" y="46.322403">Handles the whole</tspan><tspan x="170.74275" y="54.921402">authentication flow</tspan><tspan x="170.74275" y="63.520401">without OAuth</tspan></text>
  <text x="76.407883" y="74.743317" fill="#000000" font-size="6.8792px" text-anchor="middle" style="line-height:1.25" xml:space="preserve"><tspan x="76.407883" y="74.743317"><tspan x="76.407883" y="74.743317" text-align="center">Server client</tspan></tspan><tspan x="76.407883" y="83.342316">(without OAuth)</tspan></text>
 </g>
 <rect x="25.498" y="46.644" width="102.3" height="119.25" fill="none" stroke="#000" stroke-width="2.354"/>
 <g transform="matrix(1 0 0 1.1137 -11.095 -1.3812)">
  <rect x="222.51" y="56.14" width="62.1" height="79.775" fill="none" stroke="#000" stroke-width="2.2306"/>
  <text transform="scale(1.0553 .94759)" x="219.51889" y="105.14027" fill="#000000" font-family="sans-serif" font-size="10.028px" letter-spacing="0px" stroke-width=".25071" word-spacing="0px" style="line-height:1.25" xml:space="preserve"><tspan x="219.51889" y="105.14027" stroke-width=".25071">Decidim</tspan></text>
 </g>
 <g transform="translate(132.26 12.937)">
  <path d="m-3.2763 62.67 76.886 0.13229" fill="none" stroke="#000" stroke-width="1.5"/>
  <path d="m72.04 66.346v-6.8577l5.9389 3.4289z" stroke-width=".11875"/>
  <path d="m2.3606 75.007 76.189 0.13229" fill="none" stroke="#000" stroke-width="1.5"/>
  <path d="m2.6799 78.308v-6.8577l-5.9389 3.4289z" stroke-width=".11875"/>
  <path d="m1.8431 103.72 76.189 0.13229" fill="none" stroke="#000" stroke-dasharray="1.5, 1.5" stroke-width="1.5"/>
  <path d="m2.1624 107.02v-6.8577l-5.9389 3.4289z" stroke-width=".11875"/>
  <text x="28.571087" y="59.927734" fill="#000000" font-family="sans-serif" font-size="4.2333px" letter-spacing="0px" stroke-width=".26458" word-spacing="0px" style="line-height:1.25" xml:space="preserve"><tspan x="28.571087" y="59.927734" font-size="4.2333px" stroke-width=".26458">Sign in</tspan></text>
  <text x="30.314802" y="72.554764" fill="#000000" font-family="sans-serif" font-size="4.2333px" letter-spacing="0px" stroke-width=".26458" word-spacing="0px" style="line-height:1.25" xml:space="preserve"><tspan x="30.314802" y="72.554764" font-size="4.2333px" stroke-width=".26458">Token</tspan></text>
 </g>
 <path d="m128.9 108.6 76.886 0.13229" fill="none" stroke="#000" stroke-dasharray="1.5, 1.5" stroke-width="1.5"/>
 <path d="m204.21 112.28v-6.8577l5.9389 3.4289z" stroke-width=".11875"/>
 <text x="152.41306" y="104.58424" fill="#000000" font-family="sans-serif" font-size="4.2333px" letter-spacing="0px" stroke-width=".26458" word-spacing="0px" style="line-height:1.25" xml:space="preserve"><tspan x="152.41306" y="104.58424" font-size="4.2333px" stroke-width=".26458">(API interaction)</tspan></text>
 <rect x="121.21" y="36.504" width="95.393" height="113" fill="none" stroke="#0000c8" stroke-dasharray="1.5, 1.5" stroke-width="1.5"/>
 <path d="m128.92 136.39 76.886 0.13229" fill="none" stroke="#000" stroke-width="1.5"/>
 <path d="m204.24 140.06v-6.8577l5.9389 3.4289z" stroke-width=".11875"/>
 <g stroke-width=".26458">
  <text x="159.65462" y="133.64424" fill="#000000" font-family="sans-serif" font-size="4.2333px" letter-spacing="0px" word-spacing="0px" style="line-height:1.25" xml:space="preserve"><tspan x="159.65462" y="133.64424" font-size="4.2333px" stroke-width=".26458">Sign out</tspan></text>
  <path d="m48.421 99.695c0 0.41214-0.17914 0.78244-0.46387 1.0373v1.746h4.6387c1.5372 0 2.7832 1.2461 2.7832 2.7832v9.2774c0 1.5371-1.246 2.7832-2.7832 2.7832h-11.133c-1.5371 0-2.7832-1.2461-2.7832-2.7832v-9.2774c0-1.5371 1.2461-2.7832 2.7832-2.7832h4.6387v-1.746c-0.28472-0.25491-0.46387-0.62512-0.46387-1.0373 0-0.76857 0.62307-1.3916 1.3916-1.3916s1.3916 0.62302 1.3916 1.3916zm-6.958 4.6387c-0.51237 0-0.92774 0.41537-0.92774 0.92774v9.2774c0 0.51236 0.41537 0.92773 0.92774 0.92773h11.133c0.51239 0 0.92774-0.41537 0.92774-0.92773v-9.2774c0-0.51237-0.41535-0.92774-0.92774-0.92774h-6.4942zm-3.711 2.7832h-1.8555v5.5664h1.8555zm18.555 0h1.8555v5.5664h-1.8555zm-12.061 4.1748c0.76857 0 1.3916-0.62305 1.3916-1.3916 0-0.76853-0.62304-1.3916-1.3916-1.3916-0.76857 0-1.3916 0.62309-1.3916 1.3916 0 0.76854 0.62304 1.3916 1.3916 1.3916zm5.5664 0c0.76854 0 1.3916-0.62305 1.3916-1.3916 0-0.76853-0.62307-1.3916-1.3916-1.3916s-1.3916 0.62309-1.3916 1.3916c0 0.76854 0.62307 1.3916 1.3916 1.3916z"/>
  <path d="m41.66 126.82c-0.17178-0.81199-0.16491-1.6337 4.88e-4 -2.416 0.6509 0.0767 1.2191-0.13897 1.4048-0.58744 0.18574-0.44852-0.06362-1.0027-0.578-1.4088 0.43621-0.67012 1.0123-1.2561 1.708-1.7087 0.40609 0.51473 0.96043 0.76422 1.4091 0.57839 0.44862-0.18574 0.6642-0.75421 0.58737-1.4053 0.81192-0.17179 1.6337-0.16492 2.416 4.8e-4 -0.0767 0.65092 0.13898 1.219 0.58746 1.4048 0.44844 0.18574 1.0026-0.0636 1.4087-0.578 0.67014 0.43623 1.2561 1.0124 1.7087 1.708-0.51474 0.40609-0.76421 0.96044-0.57842 1.4091 0.18574 0.44863 0.75423 0.6642 1.4054 0.58737 0.17178 0.81195 0.1649 1.6337-5.3e-4 2.416-0.6509-0.0767-1.2191 0.13898-1.4048 0.58738-0.18574 0.44853 0.06361 1.0027 0.578 1.4088-0.43618 0.67007-1.0123 1.256-1.708 1.7087-0.40604-0.51471-0.96041-0.76425-1.409-0.57842-0.44864 0.18597-0.66422 0.75426-0.5874 1.4053-0.81199 0.172-1.6337 0.1649-2.416-4.9e-4 0.0767-0.6509-0.13897-1.2191-0.58741-1.4048-0.44851-0.18574-1.0027 0.0636-1.4087 0.57802-0.67012-0.43621-1.2561-1.0123-1.7087-1.708 0.51472-0.40606 0.76421-0.96042 0.5784-1.4091-0.18574-0.44855-0.75423-0.66415-1.4053-0.58733zm1.0482-1.0848c0.64498 0.17844 1.1773 0.58722 1.4407 1.2233 0.26346 0.63599 0.17621 1.3014-0.15383 1.8837 0.05652 0.0596 0.11482 0.11793 0.17444 0.17445 0.58226-0.32982 1.2476-0.41715 1.8836-0.15361 0.636 0.26346 1.0447 0.79566 1.2232 1.4406 0.08224 2e-3 0.16446 2e-3 0.24661 1.1e-4 0.17843-0.64499 0.58722-1.1772 1.2233-1.4407 0.63601-0.26347 1.3014-0.17621 1.8837 0.15383 0.05963-0.0567 0.11792-0.11482 0.17444-0.17444-0.32984-0.58223-0.41714-1.2476-0.15382-1.8836 0.26343-0.63601 0.79563-1.0447 1.4405-1.2232 0.0025-0.0823 0.0025-0.16447 1.16e-4 -0.24666-0.64496-0.17843-1.1772-0.58722-1.4407-1.2232-0.2635-0.63603-0.17622-1.3014 0.15382-1.8837-0.05673-0.0596-0.11481-0.11769-0.17444-0.17422-0.58224 0.32982-1.2476 0.41717-1.8836 0.15361-0.636-0.26343-1.0447-0.79566-1.2232-1.4406-0.08224-2e-3 -0.16446-2e-3 -0.24668-1.3e-4 -0.17843 0.64497-0.58722 1.1773-1.2232 1.4407-0.63603 0.26345-1.3014 0.17621-1.8837-0.15383-0.05963 0.0567-0.1177 0.11482-0.17444 0.17444 0.32982 0.58228 0.41714 1.2476 0.15382 1.8836-0.26343 0.63595-0.79566 1.0447-1.4406 1.2232-0.0022 0.0823-0.0022 0.16446-1.11e-4 0.24658zm4.6916 1.6361c-0.97167 0-1.7593-0.78773-1.7593-1.7594 0-0.97169 0.78768-1.7594 1.7593-1.7594 0.97165 0 1.7593 0.78767 1.7593 1.7594 0 0.97163-0.7877 1.7594-1.7593 1.7594zm0-1.1729c0.3239 0 0.58647-0.26255 0.58647-0.58645 0-0.32389-0.26257-0.58643-0.58647-0.58643-0.32389 0-0.58644 0.26254-0.58644 0.58643 0 0.3239 0.26254 0.58645 0.58644 0.58645z"/>
  <path d="m66.242 102.03h21.978v-9.419h-21.978zm25.117-10.989v25.117c0 0.86703-0.70286 1.5698-1.5698 1.5698h-25.117c-0.86697 0-1.5698-0.70282-1.5698-1.5698v-25.117c0-0.86699 0.70286-1.5698 1.5698-1.5698h25.117c0.86697 0 1.5698 0.70285 1.5698 1.5698zm-3.1397 14.129h-21.978v9.419h21.978zm-18.838 3.1397h4.7095v3.1397h-4.7095zm0-12.559h4.7095v3.1397h-4.7095z"/>
 </g>
</svg>
